<?xml version="1.0" encoding="UTF-8"?>
<svg xmlns="http://www.w3.org/2000/svg" xmlns:xlink="http://www.w3.org/1999/xlink" viewBox="0 0 512 512" width="512px" height="512px">
<g id="surface647495">
<path style=" stroke:none;fill-rule:nonzero;fill:rgb(100%,100%,100%);fill-opacity:1;" d="M 451.648438 139.535156 C 448.9375 128.015625 440.28125 118.777344 428.71875 115.113281 C 398.089844 105.390625 331.632812 96 256 96 C 180.367188 96 113.910156 105.390625 83.273438 115.113281 C 71.710938 118.777344 63.054688 128.015625 60.34375 139.535156 C 55.222656 161.289062 48 201.625 48 256 C 48 310.375 55.222656 350.710938 60.351562 372.464844 C 63.0625 383.984375 71.71875 393.222656 83.28125 396.886719 C 113.910156 406.609375 180.367188 416 256 416 C 331.632812 416 398.089844 406.609375 428.726562 396.886719 C 440.289062 393.222656 448.945312 383.984375 451.65625 372.464844 C 456.777344 350.710938 464 310.375 464 256 C 464 201.625 456.777344 161.289062 451.648438 139.535156 Z M 216 320 L 216 192 L 334.855469 256 Z M 216 320 "/>
</g>
</svg>
